<?xml version="1.0" standalone="no"?>
<!DOCTYPE svg PUBLIC "-//W3C//DTD SVG 20010904//EN"
 "http://www.w3.org/TR/2001/REC-SVG-20010904/DTD/svg10.dtd">
<svg version="1.0" xmlns="http://www.w3.org/2000/svg"
 width="300.000000pt" height="300.000000pt" viewBox="0 0 300.000000 300.000000"
 preserveAspectRatio="xMidYMid meet">
<metadata>
Created by potrace 1.11, written by Peter Selinger 2001-2013
</metadata>
<g transform="translate(0.000000,300.000000) scale(0.100000,-0.100000)"
fill="#000000" stroke="none">
<path d="M0 1635 l0 -1365 35 0 c19 0 44 5 54 12 10 6 27 8 37 4 16 -6 14 -9
-15 -22 -18 -8 -44 -14 -56 -14 -54 0 -55 -4 -55 -131 l0 -119 238 1 c130 1
227 4 216 6 -12 2 -45 24 -73 48 -28 24 -57 42 -64 39 -7 -2 -26 7 -43 21 -16
14 -34 25 -40 25 -6 0 -17 6 -23 14 -15 18 5 34 22 17 6 -6 17 -11 24 -11 7 0
31 -12 52 -26 32 -21 43 -24 60 -15 11 7 33 9 48 5 23 -5 26 -4 16 7 -16 16
-17 29 -3 29 6 0 14 -8 17 -17 11 -29 64 -103 73 -103 5 0 12 -9 15 -20 6 -20
15 -20 481 -20 387 0 478 3 489 14 25 25 46 88 39 122 -6 30 -3 34 27 49 l34
15 -50 -5 c-58 -6 -79 -26 -71 -70 4 -24 -1 -37 -24 -63 -16 -17 -32 -32 -34
-32 -6 0 2 74 14 133 6 26 10 70 10 96 0 52 -16 74 -89 129 -17 13 -31 30 -31
37 0 7 -6 15 -12 18 -7 2 -10 7 -7 11 7 8 63 -19 79 -39 7 -8 17 -15 22 -15 5
0 34 -12 63 -27 45 -21 54 -30 49 -47 -4 -17 6 -28 43 -54 77 -51 94 -44 97
45 1 41 4 46 25 50 14 2 38 10 53 18 16 8 49 17 73 21 36 5 45 3 45 -9 0 -8 7
-17 15 -21 8 -3 15 -12 15 -21 0 -8 5 -15 10 -15 6 0 10 11 10 24 0 14 13 51
30 83 17 31 30 67 29 78 0 11 -14 -8 -33 -47 l-32 -68 -39 39 c-32 31 -44 37
-58 30 -9 -6 -22 -7 -27 -4 -6 4 -25 -3 -44 -14 -18 -12 -44 -21 -57 -21 -14
0 -41 -11 -62 -25 -29 -20 -37 -32 -37 -55 0 -18 -5 -30 -13 -30 -14 0 -17 66
-4 87 5 7 0 20 -12 30 -23 19 -12 43 18 43 10 0 26 7 37 15 18 14 18 14 -6 15
-14 0 -42 8 -63 19 -20 10 -57 22 -83 26 -43 6 -103 45 -70 45 8 0 17 -4 21
-9 7 -13 44 -10 42 3 -1 5 13 12 30 16 18 4 39 13 47 20 8 6 23 9 33 6 13 -4
22 2 30 21 7 15 13 31 13 35 0 12 -44 10 -57 -3 -9 -9 -23 -9 -52 -2 -30 8
-46 7 -65 -2 -13 -7 -26 -12 -28 -10 -2 2 -27 6 -55 9 -29 2 -57 7 -63 11 -6
4 -24 8 -39 9 -16 1 -43 14 -61 30 -23 19 -40 26 -56 22 -32 -8 -63 22 -71 68
-5 33 -3 41 18 57 13 10 41 19 61 19 41 0 61 18 29 27 -12 3 -21 13 -21 23 0
20 -36 70 -51 70 -13 0 -49 38 -49 51 0 8 19 10 63 5 104 -11 113 -13 126 -20
6 -4 17 -3 24 2 19 15 77 26 125 24 51 -3 53 4 6 24 -36 15 -111 16 -120 2 -3
-5 -10 -6 -15 -2 -6 3 -60 9 -120 13 -74 5 -114 12 -124 22 -8 8 -15 39 -17
69 -3 48 -1 55 17 58 11 2 25 9 30 16 21 26 53 35 104 29 42 -5 51 -3 51 9 0
21 -43 48 -76 48 -15 0 -44 -5 -65 -12 -33 -9 -42 -9 -56 4 -10 9 -35 23 -55
31 -21 9 -38 22 -38 30 0 23 29 87 40 87 6 0 10 8 10 18 0 9 11 35 24 56 13
22 22 45 19 52 -2 6 3 14 11 17 10 4 16 18 16 35 0 16 9 37 20 47 38 35 12
195 -31 195 -10 0 -21 5 -25 11 -3 6 -17 8 -30 5 -18 -5 -26 -2 -31 11 -4 10
-12 22 -20 26 -14 9 -18 37 -5 37 5 0 7 13 4 30 -5 34 -22 41 -22 9 0 -11 -5
-17 -10 -14 -7 4 -7 13 0 25 6 11 9 30 7 42 -2 13 -2 17 0 10 3 -7 10 -11 16
-9 8 2 12 28 12 68 0 35 4 69 8 76 4 6 1 13 -5 16 -10 3 -8 10 6 25 10 12 16
28 13 37 -4 8 3 23 14 34 12 11 19 27 17 38 -2 11 5 22 17 28 11 6 26 23 33
38 12 25 103 86 150 101 19 7 42 56 42 94 0 6 5 12 11 12 8 0 9 13 5 41 -5 32
-2 46 15 67 11 15 27 27 34 27 7 0 21 8 32 16 12 11 48 19 103 24 47 4 118 10
158 13 41 4 76 5 79 2 5 -5 43 -9 136 -13 30 -1 47 -6 47 -14 0 -7 11 -13 24
-13 14 0 28 -5 31 -11 4 -6 13 -8 20 -5 7 2 17 0 21 -4 5 -5 19 -11 31 -13 11
-1 27 -8 35 -13 7 -6 39 -24 71 -39 61 -29 155 -124 149 -151 -1 -7 8 -16 23
-20 14 -3 25 -12 25 -20 0 -7 6 -17 14 -21 7 -4 19 -19 26 -32 16 -32 29 -47
63 -79 15 -15 27 -36 27 -47 0 -11 9 -27 20 -35 11 -8 20 -20 20 -26 0 -6 8
-14 18 -17 11 -2 22 -17 25 -36 4 -17 13 -31 21 -31 18 0 28 -31 32 -100 2
-54 22 -125 23 -87 1 15 4 16 21 7 17 -9 18 -14 9 -31 -8 -15 -7 -24 2 -35 9
-11 9 -21 1 -39 -6 -14 -7 -27 -2 -30 4 -3 12 -20 16 -37 3 -18 11 -39 16 -48
7 -11 4 -26 -11 -53 -20 -37 -21 -57 0 -57 5 0 9 9 9 20 0 11 5 20 10 20 14 0
13 -23 -2 -38 -7 -7 -8 -12 -3 -12 4 0 0 -9 -10 -21 -19 -20 -18 -20 10 -43
32 -25 21 -42 -20 -32 -16 4 -25 1 -29 -11 -4 -9 -4 -18 -1 -21 3 -3 5 0 5 6
0 23 30 12 44 -16 8 -16 26 -40 40 -53 30 -28 31 -40 9 -91 -21 -47 -33 -49
-34 -5 0 31 -1 31 -10 7 -13 -32 -46 -63 -54 -50 -3 6 -1 10 4 10 6 0 11 9 11
20 0 18 -1 18 -23 -3 -16 -15 -20 -26 -14 -34 7 -9 5 -13 -7 -13 -9 0 -16 -8
-16 -17 0 -13 -3 -14 -11 -6 -8 8 -4 27 17 69 15 31 29 75 30 96 2 48 -6 42
-26 -20 -20 -60 -51 -112 -67 -112 -17 0 -17 17 0 23 7 2 8 8 3 13 -5 5 -11 4
-13 -3 -3 -7 -15 -13 -27 -13 -12 0 -27 -5 -32 -10 -7 -7 -27 -7 -62 1 -52 12
-70 29 -31 29 11 0 17 5 14 10 -3 6 -26 10 -50 10 -45 0 -123 35 -155 69 -42
45 -72 132 -50 146 12 8 14 92 1 99 -4 3 -11 19 -14 36 -15 71 -22 17 -23
-164 -1 -161 1 -193 12 -189 16 6 19 -18 5 -32 -10 -11 -21 -105 -24 -209 -2
-59 -5 -71 -24 -83 -25 -17 -32 -70 -12 -90 9 -9 7 -11 -9 -6 -11 3 -31 -2
-43 -10 -22 -16 -21 -16 26 -46 36 -23 52 -28 61 -20 20 17 36 2 22 -21 -8
-13 -9 -23 -2 -32 9 -11 11 -100 4 -118 -1 -3 -2 -13 -1 -22 1 -11 -9 -23 -23
-30 -28 -12 -33 -24 -15 -30 25 -8 -36 -84 -116 -146 -16 -12 -29 -25 -27 -27
7 -14 0 -18 -8 -5 -5 8 -10 10 -10 4 0 -6 7 -17 15 -24 11 -9 22 -6 55 21 22
18 40 35 40 38 0 3 12 12 28 18 16 8 37 32 52 60 36 70 59 91 61 56 2 -28 17
27 18 65 2 78 41 8 47 -86 4 -64 -1 -85 -47 -230 -18 -56 -19 -65 -6 -75 20
-16 60 -158 63 -222 1 -27 7 -69 13 -93 l12 -42 247 2 247 3 3 38 c4 50 22 48
22 -3 l0 -40 60 0 c62 0 77 13 45 40 -16 13 -21 90 -7 90 5 0 16 -16 25 -35 9
-19 22 -35 28 -35 8 0 6 6 -4 18 -18 20 -33 87 -20 95 13 8 30 -5 34 -28 3
-11 14 -21 26 -23 13 -2 20 -8 17 -16 -3 -8 9 -25 26 -38 28 -22 29 -26 16
-37 -9 -8 -27 -13 -41 -13 -14 0 -28 -4 -31 -9 -3 -5 24 -9 60 -9 l66 0 0
1500 0 1500 -1500 0 -1500 0 0 -1365z m650 599 c0 -14 -4 -23 -9 -20 -5 3 -7
15 -4 26 7 28 13 25 13 -6z m225 -274 c3 -5 -1 -10 -9 -10 -9 0 -16 5 -16 10
0 6 4 10 9 10 6 0 13 -4 16 -10z m63 -144 c3 -15 0 -18 -19 -13 -13 4 -40 7
-59 7 -33 1 -34 1 -16 15 28 21 90 15 94 -9z m52 -21 c0 -3 -9 -5 -20 -5 -11
0 -20 7 -20 15 0 13 4 14 20 5 11 -6 20 -13 20 -15z m-22 -55 c7 -12 8 -20 2
-20 -5 0 -10 -7 -10 -15 0 -12 -10 -15 -47 -12 -27 2 -48 8 -51 16 -3 9 2 11
16 7 16 -5 25 0 38 19 20 30 35 32 52 5z m-24 -68 c3 -5 -12 -27 -32 -51 -28
-33 -47 -45 -79 -51 -26 -4 -40 -4 -37 2 3 5 -1 15 -10 21 -15 11 -16 16 -2
47 8 19 15 29 16 22 0 -16 86 -10 103 7 13 13 34 14 41 3z m-160 -129 c5 -12
9 -14 18 -5 14 14 28 16 28 3 0 -5 -9 -11 -21 -14 -14 -4 -20 -12 -17 -28 2
-12 -3 -24 -11 -27 -8 -3 -11 0 -7 6 3 6 2 14 -4 17 -6 4 -8 15 -5 25 4 12 -1
22 -12 29 -17 10 -16 10 3 11 12 0 25 -8 28 -17z m1926 -89 c0 -3 -7 -12 -15
-20 -8 -9 -18 -27 -22 -42 -8 -35 -43 -82 -60 -82 -20 0 -16 24 7 40 11 8 20
19 20 25 0 16 49 85 60 85 6 0 10 -3 10 -6z m-670 -444 c0 -5 -4 -10 -10 -10
-5 0 -10 5 -10 10 0 6 5 10 10 10 6 0 10 -4 10 -10z m-29 -53 c-13 -13 -26 -3
-16 12 3 6 11 8 17 5 6 -4 6 -10 -1 -17z m-826 -427 c3 -5 1 -10 -4 -10 -6 0
-11 5 -11 10 0 6 2 10 4 10 3 0 8 -4 11 -10z m83 -65 c43 -41 29 -48 -17 -8
-29 25 -39 43 -25 43 3 0 22 -16 42 -35z m-461 -149 c13 -38 10 -56 -8 -56
-17 0 -23 32 -8 41 12 8 11 11 -3 20 -10 5 -18 17 -18 25 0 28 23 9 37 -30z
m1733 36 c0 -13 -12 -22 -22 -16 -10 6 -1 24 13 24 5 0 9 -4 9 -8z m89 -34
c13 -10 32 -18 42 -18 27 0 23 -13 -8 -28 -24 -11 -30 -10 -48 8 -11 12 -29
27 -39 34 -22 15 -13 38 12 29 9 -4 28 -15 41 -25z m-1929 -4 c0 -8 -5 -12
-10 -9 -6 4 -8 11 -5 16 9 14 15 11 15 -7z m1800 -10 c0 -8 7 -14 15 -14 8 0
15 7 15 15 0 8 7 15 15 15 10 0 15 -11 16 -32 1 -18 3 -25 6 -15 2 9 11 17 19
17 10 0 14 -13 14 -45 0 -33 -4 -45 -15 -45 -8 0 -15 -4 -15 -8 0 -15 -62 -82
-75 -82 -8 0 -10 -9 -7 -25 5 -28 -4 -32 -27 -10 -9 8 -28 25 -43 37 -21 17
-26 27 -18 38 7 11 10 12 10 2 0 -9 7 -11 19 -7 11 3 22 1 26 -5 3 -5 11 -10
17 -10 7 0 7 5 -1 14 -6 7 -9 20 -5 29 4 12 1 14 -14 10 -11 -2 -23 0 -26 6
-4 6 -16 11 -27 11 -34 0 -16 23 21 27 40 4 41 5 30 23 -7 11 -11 12 -24 0
-35 -28 -27 1 10 38 37 38 64 45 64 16z m245 -94 c-10 -11 -22 -17 -28 -13 -5
3 1 14 14 24 30 22 38 16 14 -11z m-2495 -13 c8 -2 2 -3 -14 -1 -16 2 -40 4
-54 4 -16 0 -22 4 -16 9 16 15 48 18 59 5 6 -6 17 -14 25 -17z m557 13 c-3
-11 -1 -23 4 -26 5 -3 6 -10 3 -16 -9 -14 -24 11 -24 40 0 12 5 22 11 22 6 0
9 -9 6 -20z m-477 -50 c0 -5 -4 -10 -9 -10 -6 0 -13 5 -16 10 -3 6 1 10 9 10
9 0 16 -4 16 -10z m318 -45 c-3 -3 -13 7 -23 22 l-17 28 23 -22 c12 -12 20
-25 17 -28z m182 4 c0 -21 -7 -23 -29 -10 -12 8 -12 12 -2 25 16 19 31 12 31
-15z"/>
<path d="M1212 2618 c2 -6 10 -14 16 -16 7 -2 10 2 6 12 -7 18 -28 22 -22 4z"/>
<path d="M1316 1933 c-2 -2 -17 -5 -32 -7 -20 -2 -31 -10 -35 -27 -13 -44 -9
-106 8 -140 18 -37 42 -65 44 -52 1 4 4 -2 7 -15 4 -13 11 -22 15 -20 5 2 13
-5 18 -14 6 -10 18 -18 27 -17 10 0 12 3 5 6 -7 2 -13 11 -13 19 0 8 -6 14
-14 14 -7 0 -16 11 -18 24 -5 23 -4 23 23 7 36 -20 79 -6 97 32 15 31 28 33
59 12 11 -8 34 -19 50 -25 26 -9 25 -7 -12 25 -22 19 -51 37 -65 40 -101 24
-103 25 -84 40 18 13 17 14 -8 15 -18 0 -28 5 -28 15 0 9 9 15 24 15 14 0 28
5 31 11 4 6 13 8 20 5 7 -2 16 1 19 9 3 9 -6 16 -27 21 -37 8 -106 12 -111 7z
m34 -127 c0 -2 -7 -7 -16 -10 -8 -3 -12 -2 -9 4 6 10 25 14 25 6z m-49 -49
c-17 -17 -24 -1 -9 22 11 18 14 19 16 5 2 -9 -1 -21 -7 -27z"/>
<path d="M2530 1910 c-8 -5 -11 -12 -8 -16 10 -9 38 3 38 16 0 12 -10 13 -30
0z"/>
<path d="M2471 1724 c-12 -14 -11 -16 4 -12 10 1 20 9 23 16 5 17 -10 15 -27
-4z"/>
<path d="M2540 1731 c0 -6 4 -13 10 -16 6 -3 7 1 4 9 -7 18 -14 21 -14 7z"/>
<path d="M2213 1673 c9 -9 20 -13 24 -9 4 4 1 11 -7 16 -25 16 -35 11 -17 -7z"/>
<path d="M2340 1671 c0 -5 6 -14 14 -20 11 -9 16 -9 21 0 4 6 1 15 -6 20 -18
11 -29 11 -29 0z"/>
<path d="M2480 1666 c0 -9 5 -16 10 -16 6 0 10 4 10 9 0 6 -4 13 -10 16 -5 3
-10 -1 -10 -9z"/>
<path d="M1880 951 c0 -5 -3 -17 -6 -26 -4 -9 -2 -15 3 -13 6 2 20 -8 32 -22
l21 -25 -4 30 c-2 17 -5 38 -5 48 -1 17 -41 25 -41 8z"/>
<path d="M1833 903 c-20 -8 -15 -23 7 -23 11 0 20 7 20 15 0 15 -6 17 -27 8z"/>
<path d="M1774 851 c3 -5 15 -7 26 -4 28 7 25 13 -6 13 -14 0 -23 -4 -20 -9z"/>
<path d="M1811 826 c-11 -13 -11 -20 -3 -28 8 -8 13 -7 18 5 10 27 0 41 -15
23z"/>
<path d="M1690 776 c0 -14 29 -30 38 -21 3 3 0 5 -6 5 -7 0 -12 7 -12 15 0 8
-4 15 -10 15 -5 0 -10 -6 -10 -14z"/>
<path d="M1765 760 c-3 -6 1 -7 9 -4 18 7 21 14 7 14 -6 0 -13 -4 -16 -10z"/>
<path d="M1610 700 c0 -5 5 -10 10 -10 6 0 10 5 10 10 0 6 -4 10 -10 10 -5 0
-10 -4 -10 -10z"/>
<path d="M1688 523 c6 -2 18 -2 25 0 6 3 1 5 -13 5 -14 0 -19 -2 -12 -5z"/>
<path d="M1635 510 c4 -6 11 -8 16 -5 14 9 11 15 -7 15 -8 0 -12 -5 -9 -10z"/>
<path d="M1720 318 c0 -31 9 -41 26 -28 8 8 17 6 28 -5 10 -11 24 -14 37 -10
15 5 19 4 15 -4 -4 -6 2 -24 13 -40 17 -23 27 -28 53 -26 18 1 32 5 31 9 -26
80 -64 112 -140 121 -62 7 -63 7 -63 -17z m93 -15 c-7 -2 -21 -2 -30 0 -10 3
-4 5 12 5 17 0 24 -2 18 -5z"/>
<path d="M1675 300 c-4 -6 -5 -14 -2 -17 3 -3 -3 -22 -14 -41 -23 -44 -25 -59
-3 -38 8 9 26 19 40 22 25 7 31 18 13 29 -6 4 -8 13 -5 20 7 18 -20 40 -29 25z"/>
<path d="M1740 260 c0 -5 9 -10 20 -10 11 0 20 5 20 10 0 6 -9 10 -20 10 -11
0 -20 -4 -20 -10z"/>
<path d="M1945 250 c3 -5 10 -10 16 -10 5 0 9 5 9 10 0 6 -7 10 -16 10 -8 0
-12 -4 -9 -10z"/>
<path d="M1790 240 c0 -5 5 -10 10 -10 6 0 10 5 10 10 0 6 -4 10 -10 10 -5 0
-10 -4 -10 -10z"/>
<path d="M1695 173 c-25 -6 -45 -22 -45 -36 0 -7 4 -7 12 1 7 7 19 12 28 12 9
0 25 7 36 15 20 15 10 18 -31 8z"/>
<path d="M1630 105 c0 -9 9 -15 21 -15 18 0 19 2 9 15 -7 8 -16 15 -21 15 -5
0 -9 -7 -9 -15z"/>
<path d="M1574 48 c3 -13 6 -30 6 -38 1 -12 3 -11 11 2 7 12 6 24 -1 38 -14
27 -24 25 -16 -2z"/>
<path d="M2871 44 c0 -11 3 -14 6 -6 3 7 2 16 -1 19 -3 4 -6 -2 -5 -13z"/>
<path d="M1600 10 c0 -5 5 -10 11 -10 5 0 7 5 4 10 -3 6 -8 10 -11 10 -2 0 -4
-4 -4 -10z"/>
</g>
</svg>
